<svg width="318" height="100" viewBox="0 0 318 100" fill="none" xmlns="http://www.w3.org/2000/svg">
<path d="M62.117 39.304C62.117 37.96 62.4058 36.768 62.9833 35.728C63.5783 34.688 64.3833 33.888 65.3983 33.328C66.4133 32.768 67.5421 32.488 68.7846 32.488C69.7296 32.488 70.6309 32.68 71.4884 33.064C72.3459 33.432 73.0284 33.928 73.5359 34.552V28.24H77.2634V46H73.5359V44.032C73.0809 44.688 72.4421 45.216 71.6196 45.616C70.7971 46.016 69.8433 46.216 68.7583 46.216C67.5333 46.216 66.4133 45.928 65.3983 45.352C64.3833 44.776 63.5783 43.968 62.9833 42.928C62.4058 41.872 62.117 40.664 62.117 39.304ZM73.5621 39.352C73.5621 38.536 73.3871 37.84 73.0371 37.264C72.6871 36.672 72.2146 36.224 71.6196 35.92C71.0246 35.6 70.3859 35.44 69.7033 35.44C69.0208 35.44 68.3908 35.592 67.8133 35.896C67.2358 36.2 66.7633 36.648 66.3958 37.24C66.0458 37.816 65.8708 38.504 65.8708 39.304C65.8708 40.104 66.0458 40.808 66.3958 41.416C66.7633 42.008 67.2358 42.464 67.8133 42.784C68.4083 43.104 69.0383 43.264 69.7033 43.264C70.3859 43.264 71.0246 43.112 71.6196 42.808C72.2146 42.488 72.6871 42.04 73.0371 41.464C73.3871 40.872 73.5621 40.168 73.5621 39.352Z" fill="white"/>
<path d="M85.1316 35.464V41.896C85.1316 42.344 85.2453 42.672 85.4728 42.88C85.7178 43.072 86.1203 43.168 86.6803 43.168H88.3866V46H86.0766C82.979 46 81.4303 44.624 81.4303 41.872V35.464H79.6977V32.704H81.4303V29.416H85.1316V32.704H88.3866V35.464H85.1316Z" fill="white"/>
<path d="M115.345 32.512C117.13 32.512 118.565 33.016 119.65 34.024C120.753 35.016 121.304 36.408 121.304 38.2V46H117.629V38.656C117.629 37.616 117.34 36.824 116.763 36.28C116.185 35.72 115.398 35.44 114.4 35.44C113.403 35.44 112.606 35.72 112.011 36.28C111.434 36.824 111.145 37.616 111.145 38.656V46H107.47V38.656C107.47 37.616 107.181 36.824 106.604 36.28C106.026 35.72 105.239 35.44 104.241 35.44C103.226 35.44 102.421 35.72 101.826 36.28C101.249 36.824 100.96 37.616 100.96 38.656V46H97.2848V32.704H100.96V34.312C101.432 33.752 102.036 33.312 102.771 32.992C103.524 32.672 104.346 32.512 105.239 32.512C106.376 32.512 107.391 32.736 108.284 33.184C109.176 33.616 109.868 34.24 110.358 35.056C110.83 34.288 111.513 33.672 112.405 33.208C113.315 32.744 114.295 32.512 115.345 32.512Z" fill="white"/>
<path d="M131.249 46.216C129.849 46.216 128.589 45.936 127.469 45.376C126.349 44.8 125.465 43.992 124.818 42.952C124.188 41.912 123.873 40.712 123.873 39.352C123.873 37.992 124.196 36.792 124.844 35.752C125.509 34.712 126.41 33.912 127.548 33.352C128.685 32.776 129.954 32.488 131.354 32.488C132.754 32.488 134.023 32.776 135.16 33.352C136.298 33.912 137.19 34.712 137.838 35.752C138.503 36.792 138.835 37.992 138.835 39.352C138.835 40.712 138.494 41.912 137.811 42.952C137.146 43.992 136.236 44.8 135.081 45.376C133.944 45.936 132.666 46.216 131.249 46.216ZM131.249 43.288C131.914 43.288 132.535 43.144 133.113 42.856C133.708 42.552 134.18 42.104 134.53 41.512C134.88 40.92 135.055 40.2 135.055 39.352C135.055 38.088 134.688 37.12 133.953 36.448C133.235 35.76 132.351 35.416 131.301 35.416C130.251 35.416 129.368 35.76 128.65 36.448C127.95 37.12 127.6 38.088 127.6 39.352C127.6 40.616 127.941 41.592 128.624 42.28C129.324 42.952 130.199 43.288 131.249 43.288Z" fill="white"/>
<path d="M149.59 32.512C151.322 32.512 152.722 33.016 153.79 34.024C154.857 35.016 155.391 36.408 155.391 38.2V46H151.716V38.656C151.716 37.6 151.427 36.792 150.85 36.232C150.272 35.656 149.485 35.368 148.487 35.368C147.472 35.368 146.667 35.656 146.072 36.232C145.495 36.792 145.206 37.6 145.206 38.656V46H141.531V32.704H145.206V34.36C145.696 33.784 146.317 33.336 147.07 33.016C147.84 32.68 148.68 32.512 149.59 32.512Z" fill="white"/>
<path d="M172.405 39.064C172.405 39.544 172.37 39.976 172.3 40.36H161.668C161.756 41.32 162.123 42.072 162.771 42.616C163.418 43.16 164.215 43.432 165.16 43.432C166.525 43.432 167.496 42.896 168.074 41.824H172.037C171.617 43.104 170.812 44.16 169.622 44.992C168.432 45.808 166.971 46.216 165.239 46.216C163.838 46.216 162.578 45.936 161.458 45.376C160.356 44.8 159.49 43.992 158.86 42.952C158.247 41.912 157.941 40.712 157.941 39.352C157.941 37.976 158.247 36.768 158.86 35.728C159.472 34.688 160.33 33.888 161.432 33.328C162.535 32.768 163.803 32.488 165.239 32.488C166.621 32.488 167.855 32.76 168.94 33.304C170.042 33.848 170.891 34.624 171.486 35.632C172.099 36.624 172.405 37.768 172.405 39.064ZM168.599 38.104C168.581 37.24 168.24 36.552 167.575 36.04C166.91 35.512 166.096 35.248 165.134 35.248C164.224 35.248 163.453 35.504 162.823 36.016C162.211 36.512 161.835 37.208 161.695 38.104H168.599Z" fill="white"/>
<path d="M189 32.704L179.996 52.288H176.085L179.235 45.664L173.407 32.704H177.529L181.282 41.992L185.089 32.704H189Z" fill="white"/>
<path d="M37.3435 23.8578C33.2118 20.0803 27.7184 18 21.8753 18C16.0322 18 10.5388 20.0803 6.40706 23.8578C2.27537 27.6353 0 32.6578 0 38C0 43.3422 2.27546 48.3646 6.40706 52.1422C10.5387 55.9198 16.0322 58 21.8753 58C27.7184 58 33.2118 55.9197 37.3435 52.1422C41.4752 48.3647 43.7505 43.3422 43.7505 38C43.7505 32.6578 41.4751 27.6354 37.3435 23.8578Z" fill="#33CC95"/>
<g clip-path="url(#clip0)">
<path d="M22.5003 26V51.1429" stroke="white" stroke-width="2" stroke-linecap="round" stroke-linejoin="round"/>
<path d="M28.7504 30.5714H19.3752C18.2149 30.5714 17.1021 30.9929 16.2816 31.743C15.4611 32.4931 15.0002 33.5106 15.0002 34.5714C15.0002 35.6323 15.4611 36.6497 16.2816 37.3999C17.1021 38.15 18.2149 38.5714 19.3752 38.5714H25.6253C26.7857 38.5714 27.8985 38.9929 28.7189 39.743C29.5394 40.4932 30.0004 41.5106 30.0004 42.5714C30.0004 43.6323 29.5394 44.6497 28.7189 45.3999C27.8985 46.15 26.7857 46.5714 25.6253 46.5714H15.0002" stroke="white" stroke-width="2" stroke-linecap="round" stroke-linejoin="round"/>
</g>
<defs>
<clipPath id="clip0">
<rect width="30.0004" height="27.4286" fill="white" transform="translate(7.50009 24.8571)"/>
</clipPath>
</defs>
</svg>
