<svg width="189" height="40" viewBox="0 0 189 40" fill="none" xmlns="http://www.w3.org/2000/svg">
<path d="M62.117 21.304C62.117 19.96 62.4058 18.768 62.9833 17.728C63.5783 16.688 64.3833 15.888 65.3983 15.328C66.4133 14.768 67.5421 14.488 68.7846 14.488C69.7296 14.488 70.6309 14.68 71.4884 15.064C72.3459 15.432 73.0284 15.928 73.5359 16.552V10.24H77.2634V28H73.5359V26.032C73.0809 26.688 72.4421 27.216 71.6196 27.616C70.7971 28.016 69.8433 28.216 68.7583 28.216C67.5333 28.216 66.4133 27.928 65.3983 27.352C64.3833 26.776 63.5783 25.968 62.9833 24.928C62.4058 23.872 62.117 22.664 62.117 21.304ZM73.5621 21.352C73.5621 20.536 73.3871 19.84 73.0371 19.264C72.6871 18.672 72.2146 18.224 71.6196 17.92C71.0246 17.6 70.3859 17.44 69.7033 17.44C69.0208 17.44 68.3908 17.592 67.8133 17.896C67.2358 18.2 66.7633 18.648 66.3958 19.24C66.0458 19.816 65.8708 20.504 65.8708 21.304C65.8708 22.104 66.0458 22.808 66.3958 23.416C66.7633 24.008 67.2358 24.464 67.8133 24.784C68.4083 25.104 69.0383 25.264 69.7033 25.264C70.3859 25.264 71.0246 25.112 71.6196 24.808C72.2146 24.488 72.6871 24.04 73.0371 23.464C73.3871 22.872 73.5621 22.168 73.5621 21.352Z" fill="white"/>
<path d="M85.1316 17.464V23.896C85.1316 24.344 85.2453 24.672 85.4728 24.88C85.7178 25.072 86.1203 25.168 86.6803 25.168H88.3866V28H86.0766C82.979 28 81.4303 26.624 81.4303 23.872V17.464H79.6977V14.704H81.4303V11.416H85.1316V14.704H88.3866V17.464H85.1316Z" fill="white"/>
<path d="M115.345 14.512C117.13 14.512 118.565 15.016 119.65 16.024C120.753 17.016 121.304 18.408 121.304 20.2V28H117.629V20.656C117.629 19.616 117.34 18.824 116.763 18.28C116.185 17.72 115.398 17.44 114.4 17.44C113.403 17.44 112.606 17.72 112.011 18.28C111.434 18.824 111.145 19.616 111.145 20.656V28H107.47V20.656C107.47 19.616 107.181 18.824 106.604 18.28C106.026 17.72 105.239 17.44 104.241 17.44C103.226 17.44 102.421 17.72 101.826 18.28C101.249 18.824 100.96 19.616 100.96 20.656V28H97.2848V14.704H100.96V16.312C101.432 15.752 102.036 15.312 102.771 14.992C103.524 14.672 104.346 14.512 105.239 14.512C106.376 14.512 107.391 14.736 108.284 15.184C109.176 15.616 109.867 16.24 110.358 17.056C110.83 16.288 111.513 15.672 112.405 15.208C113.315 14.744 114.295 14.512 115.345 14.512Z" fill="white"/>
<path d="M131.249 28.216C129.849 28.216 128.589 27.936 127.469 27.376C126.349 26.8 125.465 25.992 124.818 24.952C124.188 23.912 123.873 22.712 123.873 21.352C123.873 19.992 124.196 18.792 124.844 17.752C125.509 16.712 126.41 15.912 127.548 15.352C128.685 14.776 129.954 14.488 131.354 14.488C132.754 14.488 134.023 14.776 135.16 15.352C136.298 15.912 137.19 16.712 137.838 17.752C138.503 18.792 138.835 19.992 138.835 21.352C138.835 22.712 138.494 23.912 137.811 24.952C137.146 25.992 136.236 26.8 135.081 27.376C133.944 27.936 132.666 28.216 131.249 28.216ZM131.249 25.288C131.914 25.288 132.535 25.144 133.113 24.856C133.708 24.552 134.18 24.104 134.53 23.512C134.88 22.92 135.055 22.2 135.055 21.352C135.055 20.088 134.688 19.12 133.953 18.448C133.235 17.76 132.351 17.416 131.301 17.416C130.251 17.416 129.368 17.76 128.65 18.448C127.95 19.12 127.6 20.088 127.6 21.352C127.6 22.616 127.941 23.592 128.624 24.28C129.324 24.952 130.199 25.288 131.249 25.288Z" fill="white"/>
<path d="M149.59 14.512C151.322 14.512 152.722 15.016 153.79 16.024C154.857 17.016 155.391 18.408 155.391 20.2V28H151.716V20.656C151.716 19.6 151.427 18.792 150.85 18.232C150.272 17.656 149.485 17.368 148.487 17.368C147.472 17.368 146.667 17.656 146.072 18.232C145.495 18.792 145.206 19.6 145.206 20.656V28H141.531V14.704H145.206V16.36C145.696 15.784 146.317 15.336 147.07 15.016C147.84 14.68 148.68 14.512 149.59 14.512Z" fill="white"/>
<path d="M172.405 21.064C172.405 21.544 172.37 21.976 172.3 22.36H161.668C161.756 23.32 162.123 24.072 162.771 24.616C163.418 25.16 164.215 25.432 165.16 25.432C166.525 25.432 167.496 24.896 168.074 23.824H172.037C171.617 25.104 170.812 26.16 169.622 26.992C168.432 27.808 166.971 28.216 165.239 28.216C163.838 28.216 162.578 27.936 161.458 27.376C160.356 26.8 159.49 25.992 158.86 24.952C158.247 23.912 157.941 22.712 157.941 21.352C157.941 19.976 158.247 18.768 158.86 17.728C159.472 16.688 160.33 15.888 161.432 15.328C162.535 14.768 163.803 14.488 165.239 14.488C166.621 14.488 167.855 14.76 168.94 15.304C170.042 15.848 170.891 16.624 171.486 17.632C172.099 18.624 172.405 19.768 172.405 21.064ZM168.599 20.104C168.581 19.24 168.24 18.552 167.575 18.04C166.91 17.512 166.096 17.248 165.134 17.248C164.224 17.248 163.453 17.504 162.823 18.016C162.211 18.512 161.835 19.208 161.695 20.104H168.599Z" fill="white"/>
<path d="M189 14.704L179.996 34.288H176.085L179.235 27.664L173.407 14.704H177.529L181.282 23.992L185.089 14.704H189Z" fill="white"/>
<path d="M37.3435 5.85781C33.2118 2.08031 27.7184 0 21.8753 0C16.0322 0 10.5388 2.08031 6.40706 5.85781C2.27537 9.63531 0 14.6578 0 20C0 25.3422 2.27546 30.3646 6.40706 34.1422C10.5387 37.9198 16.0322 40 21.8753 40C27.7184 40 33.2118 37.9197 37.3435 34.1422C41.4752 30.3647 43.7505 25.3422 43.7505 20C43.7505 14.6578 41.4751 9.63539 37.3435 5.85781Z" fill="#33CC95"/>
<g clip-path="url(#clip0)">
<path d="M22.5003 8V33.1429" stroke="white" stroke-width="2" stroke-linecap="round" stroke-linejoin="round"/>
<path d="M28.7504 12.5714H19.3752C18.2149 12.5714 17.1021 12.9929 16.2816 13.743C15.4611 14.4931 15.0002 15.5106 15.0002 16.5714C15.0002 17.6323 15.4611 18.6497 16.2816 19.3999C17.1021 20.15 18.2149 20.5714 19.3752 20.5714H25.6253C26.7857 20.5714 27.8985 20.9929 28.7189 21.743C29.5394 22.4932 30.0004 23.5106 30.0004 24.5714C30.0004 25.6323 29.5394 26.6497 28.7189 27.3999C27.8985 28.15 26.7857 28.5714 25.6253 28.5714H15.0002" stroke="white" stroke-width="2" stroke-linecap="round" stroke-linejoin="round"/>
</g>
<defs>
<clipPath id="clip0">
<rect width="30.0004" height="27.4286" fill="white" transform="translate(7.50009 6.85714)"/>
</clipPath>
</defs>
</svg>
